<svg version="1.1" xmlns="http://www.w3.org/2000/svg" style="display: block;" viewBox="0 0 2048 2048" width="1024" height="1024" preserveAspectRatio="none">
<path transform="translate(0,0)" fill="rgb(255,255,255)" d="M 0 467.555 C 2.03648 461.594 2.3084 456.271 3.5419 450.145 C 5.81793 438.856 8.65502 427.687 12.0426 416.679 C 36.4568 338.34 111.51 274.943 193.267 266.28 C 213.468 264.139 243.721 265.551 264.51 265.482 L 395.314 265.253 L 785.576 265.24 L 1505.54 265.243 L 1706.39 265.305 L 1803.27 265.414 C 1838.73 265.48 1861.58 264.253 1895.58 275.713 C 1963.52 298.61 2016.13 354.386 2038.52 422.024 C 2041.34 430.546 2045.44 463.291 2048 467.232 L 2048 1549.41 C 2046.75 1552.65 2044.74 1567.72 2043.76 1572.44 C 2041.16 1584.97 2038.24 1594.19 2033.75 1606.17 C 2012.74 1661.92 1970.62 1707.14 1916.5 1732.04 C 1864.5 1755.48 1811.93 1749.96 1756.63 1749.94 L 1584.86 1749.95 L 1058.14 1749.97 L 492.445 1750.04 L 305.788 1750.02 C 254.335 1750.01 194.227 1755.21 146.349 1736.94 C 75.7739 1710.01 17.1946 1646.72 4.3403 1571.16 C 3.2123 1564.53 2.81379 1552.23 0 1546.99 L 0 467.555 z"/>
<path transform="translate(0,0)" fill="rgb(55,118,227)" d="M 508.25 656.414 C 581.173 653.511 647.906 673.272 706.397 717.238 C 771.519 765.652 814.552 838.117 825.895 918.466 C 838.336 1008.5 814.763 1083.61 760.912 1155.1 C 772.643 1167.18 784.483 1179.16 796.43 1191.02 C 826.322 1183.59 840.571 1186.55 862.761 1208.49 C 903.822 1248.91 944.411 1290.61 985.282 1331.11 C 1004.53 1350.19 1018.53 1362.01 1018.36 1390.84 C 1018.26 1408.42 1011.74 1425.18 999.125 1437.33 C 987.02 1448.83 970.938 1455.2 954.242 1455.11 C 922.896 1454.79 906.155 1432 885.689 1411.6 L 826.279 1351.81 C 817.876 1343.42 808.686 1335.04 800.732 1326.28 C 770.98 1293.51 740.414 1282.05 755.385 1231.76 C 745.49 1220.76 730.438 1206.59 719.538 1196.26 C 672.011 1237.91 607.25 1263.38 544.384 1267.95 C 463.061 1273.53 382.866 1246.48 321.538 1192.78 C 260.597 1139.65 223.081 1064.62 217.137 983.993 C 211.144 902.714 238.046 822.432 291.804 761.175 C 348.558 696.022 422.807 662.299 508.25 656.414 z"/>
<path transform="translate(0,0)" fill="rgb(255,255,255)" d="M 513.061 742.365 C 541.105 738.05 575.034 749.231 594.405 770.154 C 617.505 795.108 616.755 819.238 616.042 851.007 C 627.514 869.801 629.174 889.083 615.161 908.106 C 612.788 911.157 606.789 915.243 605.386 918.721 C 598.58 935.589 590.53 947.767 580.385 962.628 C 583.864 982.45 588.719 989.689 608.024 997.131 C 664.991 1019.09 693.591 1022.58 701.792 1092.01 C 700.208 1094.78 698.636 1097.13 696.577 1099.53 C 650.198 1153.63 603.524 1175.9 534.642 1182.89 C 507.844 1183.48 484.971 1181.08 459.163 1173.52 C 422.062 1162.48 388.431 1142.07 361.512 1114.25 C 355.187 1107.83 347.897 1100.41 343.542 1092.51 C 345.743 1059.72 356.934 1029.82 388.739 1016.06 C 409.545 1007.06 442.783 998.377 459.312 983.912 C 462.616 976.984 463.473 970.923 464.564 963.495 C 461.305 957.322 454.241 949.694 451.962 943.508 C 438.012 905.648 402.072 893.709 429.041 850.898 C 427.95 812.778 426.152 790.501 461.916 766.641 C 483.983 751.919 483.898 746.487 513.061 742.365 z"/>
<path transform="translate(0,0)" fill="rgb(55,118,227)" d="M 565.608 974.907 C 566.785 979.685 568.549 986.531 571.331 990.545 C 589.147 1016.25 633.366 1020.32 658.357 1036.52 C 676.706 1048.41 680.374 1068.27 684.054 1087.92 C 656.481 1125.56 608.517 1152.21 563.243 1162.12 C 556.053 1135.1 550.235 1095.54 543.725 1066.59 C 550.032 1057.19 561.26 1043.21 560.292 1032.25 C 559.879 1031.5 559.458 1030.76 559.029 1030.02 C 553.874 1021.16 547.548 1013.4 537.054 1011.31 C 517.508 1007.51 491.307 1009.84 485.577 1032.96 C 483.077 1043.04 495.89 1057.83 501.683 1066.08 C 495.014 1095.14 487.542 1132.16 483.022 1161.62 C 438.252 1154.12 388.067 1123.51 360.628 1087.63 C 372.488 1019.36 407.717 1033.99 459.221 1004.73 C 472.157 997.386 476.157 989.084 479.949 975.325 C 510.445 994.9 535.305 996.053 565.608 974.907 z"/>
<path transform="translate(0,0)" fill="rgb(55,118,227)" d="M 513.334 759.325 C 537.686 755.829 565.225 763.48 582.265 781.698 C 602.641 803.483 599.672 831.198 598.815 858.648 C 617.147 875.3 607.651 894.086 590.899 907.301 C 578.783 938.764 565.969 963.602 530.797 972.82 C 486.983 976.994 467.754 941.78 454.116 906.879 C 443.867 899.989 436.375 891.127 436.437 877.693 C 436.48 868.208 440.273 864.943 446.826 859.058 C 445.234 833.797 440.192 793.648 470.539 782.205 C 475.717 780.253 481.27 775.35 485.273 771.528 C 494.296 762.91 501.375 760.955 513.334 759.325 z"/>
<path transform="translate(0,0)" fill="rgb(55,118,227)" d="M 509.92 1027.37 C 550.565 1025.95 546.989 1030.75 527.333 1061.35 C 527.946 1073.29 531.516 1090.1 533.897 1102.19 L 546.737 1164.58 C 543.149 1165.27 539.685 1165.63 536.059 1166.05 C 523.568 1166.49 511.062 1166.06 498.632 1164.76 C 504.081 1139.13 516.016 1086.32 518.252 1062.42 C 513.291 1053.7 506.57 1045.35 501.218 1036.13 C 504.561 1031.97 505.605 1030.39 509.92 1027.37 z"/>
<path transform="translate(0,0)" fill="rgb(19,41,86)" d="M 1331.24 854.202 C 1359.6 853.622 1353.98 881.028 1353.92 901.501 L 1353.78 957.402 C 1368.99 942.482 1382.98 934.373 1404.38 931.887 C 1491.01 921.822 1536.23 1024.42 1483.97 1088.64 C 1475.54 1099.19 1463.42 1107.77 1450.99 1112.96 C 1402.99 1133.01 1343.94 1115.14 1323.41 1065.16 C 1314.86 1044.35 1315.08 1025.92 1315.31 1003.86 C 1315.76 961.031 1315.23 918.165 1315.51 875.335 C 1315.59 863.084 1319.91 857.817 1331.24 854.202 z"/>
<path transform="translate(0,0)" fill="rgb(255,255,255)" d="M 1407.18 967.298 C 1439.63 965.598 1467.32 990.507 1469.04 1022.95 C 1470.77 1055.39 1445.88 1083.1 1413.44 1084.85 C 1380.96 1086.6 1353.22 1061.68 1351.49 1029.2 C 1349.76 996.724 1374.7 969 1407.18 967.298 z"/>
<path transform="translate(0,0)" fill="rgb(19,41,86)" d="M 1172.73 931.438 C 1225.04 922.831 1274.41 958.301 1282.95 1010.63 C 1291.49 1062.95 1255.96 1112.28 1203.62 1120.75 C 1151.38 1129.21 1102.16 1093.76 1093.64 1041.53 C 1085.11 989.295 1120.51 940.03 1172.73 931.438 z"/>
<path transform="translate(0,0)" fill="rgb(255,255,255)" d="M 1177.42 968.356 C 1209.55 962.337 1240.44 983.629 1246.25 1015.8 C 1252.05 1047.97 1230.56 1078.72 1198.35 1084.32 C 1166.44 1089.86 1136.04 1068.61 1130.28 1036.74 C 1124.53 1004.86 1145.58 974.32 1177.42 968.356 z"/>
<path transform="translate(0,0)" fill="rgb(19,41,86)" d="M 1744.56 1060.36 L 1776.78 986.623 C 1783.21 971.846 1789.32 957.012 1796.81 942.733 C 1801.51 933.756 1809.96 931.213 1819.47 934.403 C 1824.26 936.038 1828.12 939.639 1830.09 944.301 C 1834.86 955.634 1820.36 980.33 1815.42 991.451 L 1781.98 1066.8 L 1747.35 1145.66 C 1741.54 1159.06 1735.95 1173.39 1729.18 1186.2 C 1723.59 1196.36 1708.31 1197.25 1700.5 1189.53 C 1691.67 1180.8 1697.1 1167.63 1701.1 1158.12 C 1709.06 1139.2 1718.01 1120.78 1726.24 1101.99 C 1710.39 1074.18 1696.84 1041.56 1682.05 1012.59 C 1673.2 993.338 1662.17 974.713 1654.44 954.989 C 1649.86 943.278 1659.82 936.157 1669.44 933.181 C 1677.26 933.151 1683.88 934.527 1688.03 941.818 C 1695.35 954.693 1701.39 968.498 1707.73 981.909 C 1720.16 1007.99 1732.44 1034.14 1744.56 1060.36 z"/>
<path transform="translate(0,0)" fill="rgb(19,41,86)" d="M 1034.83 855.114 C 1052.27 854.671 1059.87 860.472 1059.98 878.898 C 1060.24 921.991 1059.5 965.097 1059.86 1008.2 C 1059.96 1020.55 1060.27 1033.69 1059.25 1045.93 C 1058.53 1055.28 1056.46 1064.48 1053.1 1073.24 C 1033.43 1123.74 970.029 1134.07 926.979 1106.73 C 914.852 1099.03 907.007 1086.46 901.284 1073.58 C 897.827 1063.89 893.029 1046.52 895.646 1036.17 C 897.302 1032.06 902.031 1024.98 906.431 1023.64 C 938.345 1013.92 930.226 1046.35 938.966 1063.7 C 943.476 1072.65 952.581 1081.55 961.99 1083.52 C 1031.18 1097.99 1020.58 1026.64 1020.51 984.054 L 1020.49 901.928 C 1020.47 882.643 1014.95 864.76 1034.83 855.114 z"/>
<path transform="translate(0,0)" fill="rgb(19,41,86)" d="M 1618.61 853.377 C 1629.97 852.308 1650.34 857.545 1648.32 872.89 C 1645.28 896.044 1615.03 883.103 1602.15 896.376 C 1590.72 908.166 1590.16 922.198 1589.7 937.865 C 1605.71 937.779 1640.51 930.586 1639.61 955.344 C 1638.83 976.759 1605.31 971.1 1589.74 970.96 C 1589.19 1006.74 1590.12 1042.7 1589.83 1078.49 C 1589.75 1087.9 1590.3 1098.28 1588.86 1107.54 C 1578.75 1125.44 1554.14 1121.2 1551.52 1105.02 C 1549.76 1094.17 1550.82 1071.49 1550.84 1059.87 L 1550.93 971.017 L 1530.02 970.933 C 1514.77 962.102 1514.23 947.847 1529.06 938.146 C 1536.91 937.306 1543.19 937.598 1551.1 937.799 C 1551.14 892.765 1570.97 858.595 1618.61 853.377 z"/>
</svg>